<?xml version="1.0" encoding="UTF-8" standalone="no"?>
<!DOCTYPE svg PUBLIC "-//W3C//DTD SVG 1.1//EN"
 "http://www.w3.org/Graphics/SVG/1.1/DTD/svg11.dtd">
<!-- Generated by graphviz version 2.40.1 (20161225.0304)
 -->
<!-- Title: Laundry Pages: 1 -->
<svg width="1929pt" height="208pt"
 viewBox="0.00 0.00 1929.29 208.24" xmlns="http://www.w3.org/2000/svg" xmlns:xlink="http://www.w3.org/1999/xlink">
<g id="graph0" class="graph" transform="scale(1 1) rotate(0) translate(4 204.2405)">
<title>Laundry</title>
<polygon fill="#ffffff" stroke="transparent" points="-4,4 -4,-204.2405 1925.286,-204.2405 1925.286,4 -4,4"/>
<!-- Reset -->
<g id="node1" class="node">
<title>Reset</title>
<ellipse fill="#799ef2" stroke="#000000" cx="34.5473" cy="-34.5473" rx="30.5892" ry="30.5892"/>
<ellipse fill="none" stroke="#000000" cx="34.5473" cy="-34.5473" rx="34.5946" ry="34.5946"/>
<text text-anchor="middle" x="34.5473" y="-30.8473" font-family="Times,serif" font-size="14.00" fill="#000000">Reset</text>
</g>
<!-- Washing -->
<g id="node4" class="node">
<title>Washing</title>
<ellipse fill="#799ef2" stroke="#000000" cx="264.3408" cy="-105.5473" rx="42.4939" ry="42.4939"/>
<text text-anchor="middle" x="264.3408" y="-101.8473" font-family="Times,serif" font-size="14.00" fill="#000000">Washing</text>
</g>
<!-- Reset&#45;&gt;Washing -->
<g id="edge3" class="edge">
<title>Reset&#45;&gt;Washing</title>
<path fill="none" stroke="#000000" d="M67.9612,-44.8713C106.3821,-56.7423 169.8479,-76.3515 214.1993,-90.0549"/>
<polygon fill="#000000" stroke="#000000" points="213.3275,-93.4487 223.9151,-93.0568 215.394,-86.7607 213.3275,-93.4487"/>
<text text-anchor="middle" x="145.5946" y="-89.3473" font-family="Times,serif" font-size="14.00" fill="#000000">washer_door == 1&#39;h1</text>
</g>
<!-- Done -->
<g id="node2" class="node">
<title>Done</title>
<ellipse fill="#799ef2" stroke="#000000" cx="1891.3887" cy="-30.5473" rx="29.795" ry="29.795"/>
<text text-anchor="middle" x="1891.3887" y="-26.8473" font-family="Times,serif" font-size="14.00" fill="#000000">Done</text>
</g>
<!-- Done&#45;&gt;Reset -->
<g id="edge1" class="edge">
<title>Done&#45;&gt;Reset</title>
<path fill="none" stroke="#000000" d="M1861.5129,-25.9421C1836.9698,-22.558 1801.2649,-18.5473 1769.8962,-18.5473 264.3408,-18.5473 264.3408,-18.5473 264.3408,-18.5473 199.8346,-18.5473 125.3881,-24.8993 79.1368,-29.5988"/>
<polygon fill="#000000" stroke="#000000" points="78.7296,-26.1222 69.1432,-30.6332 79.4504,-33.085 78.7296,-26.1222"/>
</g>
<!-- Drying -->
<g id="node3" class="node">
<title>Drying</title>
<ellipse fill="#799ef2" stroke="#000000" cx="1045.9879" cy="-122.5473" rx="35.9954" ry="35.9954"/>
<text text-anchor="middle" x="1045.9879" y="-118.8473" font-family="Times,serif" font-size="14.00" fill="#000000">Drying</text>
</g>
<!-- Dryer_Heating -->
<g id="node5" class="node">
<title>Dryer_Heating</title>
<ellipse fill="#79cdf2" stroke="#000000" cx="1288.4291" cy="-122.5473" rx="63.8893" ry="63.8893"/>
<text text-anchor="middle" x="1288.4291" y="-118.8473" font-family="Times,serif" font-size="14.00" fill="#000000">Dryer_Heating</text>
</g>
<!-- Drying&#45;&gt;Dryer_Heating -->
<g id="edge2" class="edge">
<title>Drying&#45;&gt;Dryer_Heating</title>
<path fill="none" stroke="#000000" d="M1081.7609,-122.5473C1116.5874,-122.5473 1170.5592,-122.5473 1214.6148,-122.5473"/>
<polygon fill="#000000" stroke="#000000" points="1214.7157,-126.0474 1224.7156,-122.5473 1214.7156,-119.0474 1214.7157,-126.0474"/>
<text text-anchor="middle" x="1153.2347" y="-126.3473" font-family="Times,serif" font-size="14.00" fill="#000000">dryer_door == 1&#39;h1</text>
</g>
<!-- Washer_WaterFill -->
<g id="node6" class="node">
<title>Washer_WaterFill</title>
<ellipse fill="#b279f2" stroke="#000000" cx="420.2803" cy="-123.5473" rx="76.8869" ry="76.8869"/>
<text text-anchor="middle" x="420.2803" y="-119.8473" font-family="Times,serif" font-size="14.00" fill="#000000">Washer_WaterFill</text>
</g>
<!-- Washing&#45;&gt;Washer_WaterFill -->
<g id="edge4" class="edge">
<title>Washing&#45;&gt;Washer_WaterFill</title>
<path fill="none" stroke="#000000" d="M306.5403,-110.4183C315.019,-111.397 324.2183,-112.4589 333.5877,-113.5404"/>
<polygon fill="#000000" stroke="#000000" points="333.4598,-117.0488 343.7952,-114.7187 334.2626,-110.095 333.4598,-117.0488"/>
</g>
<!-- Dryer_Spin -->
<g id="node7" class="node">
<title>Dryer_Spin</title>
<ellipse fill="#79cdf2" stroke="#000000" cx="1441.1188" cy="-122.5473" rx="51.9908" ry="51.9908"/>
<text text-anchor="middle" x="1441.1188" y="-118.8473" font-family="Times,serif" font-size="14.00" fill="#000000">Dryer_Spin</text>
</g>
<!-- Dryer_Heating&#45;&gt;Dryer_Spin -->
<g id="edge5" class="edge">
<title>Dryer_Heating&#45;&gt;Dryer_Spin</title>
<path fill="none" stroke="#000000" d="M1352.2986,-122.5473C1361.1091,-122.5473 1370.1474,-122.5473 1378.927,-122.5473"/>
<polygon fill="#000000" stroke="#000000" points="1379.0854,-126.0474 1389.0854,-122.5473 1379.0853,-119.0474 1379.0854,-126.0474"/>
</g>
<!-- Washer_Spin -->
<g id="node8" class="node">
<title>Washer_Spin</title>
<ellipse fill="#b279f2" stroke="#000000" cx="592.4683" cy="-122.5473" rx="58.4896" ry="58.4896"/>
<text text-anchor="middle" x="592.4683" y="-118.8473" font-family="Times,serif" font-size="14.00" fill="#000000">Washer_Spin</text>
</g>
<!-- Washer_WaterFill&#45;&gt;Washer_Spin -->
<g id="edge6" class="edge">
<title>Washer_WaterFill&#45;&gt;Washer_Spin</title>
<path fill="none" stroke="#000000" d="M497.0581,-123.1014C505.9533,-123.0497 514.9828,-122.9973 523.7607,-122.9463"/>
<polygon fill="#000000" stroke="#000000" points="523.947,-126.4454 533.9264,-122.8873 523.9062,-119.4455 523.947,-126.4454"/>
</g>
<!-- Dryer_CoolDown -->
<g id="node9" class="node">
<title>Dryer_CoolDown</title>
<ellipse fill="#79cdf2" stroke="#000000" cx="1604.2076" cy="-121.5473" rx="74.187" ry="74.187"/>
<text text-anchor="middle" x="1604.2076" y="-117.8473" font-family="Times,serif" font-size="14.00" fill="#000000">Dryer_CoolDown</text>
</g>
<!-- Dryer_Spin&#45;&gt;Dryer_CoolDown -->
<g id="edge7" class="edge">
<title>Dryer_Spin&#45;&gt;Dryer_CoolDown</title>
<path fill="none" stroke="#000000" d="M1493.1695,-122.2281C1501.7036,-122.1758 1510.7358,-122.1204 1519.8151,-122.0648"/>
<polygon fill="#000000" stroke="#000000" points="1520.0836,-125.5633 1530.0619,-122.0019 1520.0406,-118.5634 1520.0836,-125.5633"/>
</g>
<!-- Washer_Drain -->
<g id="node10" class="node">
<title>Washer_Drain</title>
<ellipse fill="#b279f2" stroke="#000000" cx="750.3576" cy="-122.5473" rx="62.2891" ry="62.2891"/>
<text text-anchor="middle" x="750.3576" y="-118.8473" font-family="Times,serif" font-size="14.00" fill="#000000">Washer_Drain</text>
</g>
<!-- Washer_Spin&#45;&gt;Washer_Drain -->
<g id="edge8" class="edge">
<title>Washer_Spin&#45;&gt;Washer_Drain</title>
<path fill="none" stroke="#000000" d="M651.2604,-122.5473C659.8308,-122.5473 668.7407,-122.5473 677.5482,-122.5473"/>
<polygon fill="#000000" stroke="#000000" points="677.8138,-126.0474 687.8138,-122.5473 677.8138,-119.0474 677.8138,-126.0474"/>
</g>
<!-- Dryer_Done -->
<g id="node11" class="node">
<title>Dryer_Done</title>
<ellipse fill="#79cdf2" stroke="#000000" cx="1769.8962" cy="-110.5473" rx="54.6905" ry="54.6905"/>
<text text-anchor="middle" x="1769.8962" y="-106.8473" font-family="Times,serif" font-size="14.00" fill="#000000">Dryer_Done</text>
</g>
<!-- Dryer_CoolDown&#45;&gt;Dryer_Done -->
<g id="edge9" class="edge">
<title>Dryer_CoolDown&#45;&gt;Dryer_Done</title>
<path fill="none" stroke="#000000" d="M1678.3288,-116.6264C1687.2467,-116.0344 1696.3009,-115.4333 1705.0719,-114.8509"/>
<polygon fill="#000000" stroke="#000000" points="1705.4669,-118.3325 1715.2131,-114.1777 1705.0032,-111.3479 1705.4669,-118.3325"/>
</g>
<!-- Washer_Done -->
<g id="node12" class="node">
<title>Washer_Done</title>
<ellipse fill="#b279f2" stroke="#000000" cx="911.4965" cy="-122.5473" rx="61.99" ry="61.99"/>
<text text-anchor="middle" x="911.4965" y="-118.8473" font-family="Times,serif" font-size="14.00" fill="#000000">Washer_Done</text>
</g>
<!-- Washer_Drain&#45;&gt;Washer_Done -->
<g id="edge10" class="edge">
<title>Washer_Drain&#45;&gt;Washer_Done</title>
<path fill="none" stroke="#000000" d="M813.1195,-122.5473C821.7576,-122.5473 830.6832,-122.5473 839.4716,-122.5473"/>
<polygon fill="#000000" stroke="#000000" points="839.7001,-126.0474 849.7,-122.5473 839.7,-119.0474 839.7001,-126.0474"/>
</g>
<!-- Dryer_Done&#45;&gt;Done -->
<g id="edge11" class="edge">
<title>Dryer_Done&#45;&gt;Done</title>
<path fill="none" stroke="#000000" d="M1815.8273,-80.3027C1829.695,-71.1712 1844.6597,-61.3173 1857.5839,-52.8069"/>
<polygon fill="#000000" stroke="#000000" points="1859.7399,-55.578 1866.167,-47.1552 1855.8902,-49.7316 1859.7399,-55.578"/>
</g>
<!-- Washer_Done&#45;&gt;Drying -->
<g id="edge12" class="edge">
<title>Washer_Done&#45;&gt;Drying</title>
<path fill="none" stroke="#000000" d="M973.6244,-122.5473C982.5299,-122.5473 991.5558,-122.5473 1000.0725,-122.5473"/>
<polygon fill="#000000" stroke="#000000" points="1000.1661,-126.0474 1010.1661,-122.5473 1000.1661,-119.0474 1000.1661,-126.0474"/>
</g>
</g>
</svg>
