<?xml version="1.0" encoding="UTF-8" standalone="no"?>
<!DOCTYPE svg PUBLIC "-//W3C//DTD SVG 1.1//EN"
 "http://www.w3.org/Graphics/SVG/1.1/DTD/svg11.dtd">
<!-- Generated by graphviz version 2.40.1 (20161225.0304)
 -->
<!-- Title: VEND Pages: 1 -->
<svg width="841pt" height="159pt"
 viewBox="0.00 0.00 841.49 158.75" xmlns="http://www.w3.org/2000/svg" xmlns:xlink="http://www.w3.org/1999/xlink">
<g id="graph0" class="graph" transform="scale(1 1) rotate(0) translate(4 154.7468)">
<title>VEND</title>
<polygon fill="#ffffff" stroke="transparent" points="-4,4 -4,-154.7468 837.4879,-154.7468 837.4879,4 -4,4"/>
<!-- Reset -->
<g id="node1" class="node">
<title>Reset</title>
<ellipse fill="#799ef2" stroke="#000000" cx="34.5473" cy="-47" rx="30.5892" ry="30.5892"/>
<ellipse fill="none" stroke="#000000" cx="34.5473" cy="-47" rx="34.5946" ry="34.5946"/>
<text text-anchor="middle" x="34.5473" y="-43.3" font-family="Times,serif" font-size="14.00" fill="#000000">Reset</text>
</g>
<!-- Five -->
<g id="node3" class="node">
<title>Five</title>
<ellipse fill="#799ef2" stroke="#000000" cx="222.5946" cy="-107" rx="26.7961" ry="26.7961"/>
<text text-anchor="middle" x="222.5946" y="-103.3" font-family="Times,serif" font-size="14.00" fill="#000000">Five</text>
</g>
<!-- Reset&#45;&gt;Five -->
<g id="edge6" class="edge">
<title>Reset&#45;&gt;Five</title>
<path fill="none" stroke="#000000" d="M67.7335,-57.5887C101.3215,-68.3056 153.0615,-84.8142 187.364,-95.759"/>
<polygon fill="#000000" stroke="#000000" points="186.3875,-99.1212 196.9782,-98.8266 188.5153,-92.4525 186.3875,-99.1212"/>
<text text-anchor="middle" x="127.0946" y="-92.8" font-family="Times,serif" font-size="14.00" fill="#000000">nickel == 1&#39;h1</text>
</g>
<!-- Ten -->
<g id="node4" class="node">
<title>Ten</title>
<ellipse fill="#799ef2" stroke="#000000" cx="413.5946" cy="-53" rx="24.8972" ry="24.8972"/>
<text text-anchor="middle" x="413.5946" y="-49.3" font-family="Times,serif" font-size="14.00" fill="#000000">Ten</text>
</g>
<!-- Reset&#45;&gt;Ten -->
<g id="edge5" class="edge">
<title>Reset&#45;&gt;Ten</title>
<path fill="none" stroke="#000000" d="M69.1901,-47.5484C141.1575,-48.6876 306.1495,-51.2992 378.5024,-52.4445"/>
<polygon fill="#000000" stroke="#000000" points="378.8334,-55.9501 388.8876,-52.6089 378.9442,-48.951 378.8334,-55.9501"/>
<text text-anchor="middle" x="222.5946" y="-54.8" font-family="Times,serif" font-size="14.00" fill="#000000">dime == 1&#39;h1</text>
</g>
<!-- Fifteen -->
<g id="node2" class="node">
<title>Fifteen</title>
<ellipse fill="#799ef2" stroke="#000000" cx="604.5946" cy="-115" rx="35.9954" ry="35.9954"/>
<text text-anchor="middle" x="604.5946" y="-111.3" font-family="Times,serif" font-size="14.00" fill="#000000">Fifteen</text>
</g>
<!-- Twenty -->
<g id="node5" class="node">
<title>Twenty</title>
<ellipse fill="#799ef2" stroke="#000000" cx="795.7912" cy="-62" rx="37.8943" ry="37.8943"/>
<text text-anchor="middle" x="795.7912" y="-58.3" font-family="Times,serif" font-size="14.00" fill="#000000">Twenty</text>
</g>
<!-- Fifteen&#45;&gt;Twenty -->
<g id="edge1" class="edge">
<title>Fifteen&#45;&gt;Twenty</title>
<path fill="none" stroke="#000000" d="M640.3101,-113.5002C668.1722,-111.4415 707.4847,-106.5615 740.0946,-95 745.2588,-93.1691 750.476,-90.8388 755.5386,-88.2657"/>
<polygon fill="#000000" stroke="#000000" points="757.3252,-91.2782 764.4396,-83.4274 753.9822,-85.1281 757.3252,-91.2782"/>
<text text-anchor="middle" x="700.0946" y="-114.8" font-family="Times,serif" font-size="14.00" fill="#000000">dime == 1&#39;h1</text>
</g>
<!-- Fifteen&#45;&gt;Twenty -->
<g id="edge2" class="edge">
<title>Fifteen&#45;&gt;Twenty</title>
<path fill="none" stroke="#000000" d="M631.8156,-91.7521C640.3595,-85.6324 650.1665,-79.7106 660.0946,-76 688.0031,-65.5693 721.251,-62.0093 747.8513,-61.0862"/>
<polygon fill="#000000" stroke="#000000" points="748.1492,-64.5803 758.0649,-60.8481 747.986,-57.5822 748.1492,-64.5803"/>
<text text-anchor="middle" x="700.0946" y="-79.8" font-family="Times,serif" font-size="14.00" fill="#000000">nickel == 1&#39;h1</text>
</g>
<!-- Five&#45;&gt;Fifteen -->
<g id="edge3" class="edge">
<title>Five&#45;&gt;Fifteen</title>
<path fill="none" stroke="#000000" d="M249.4561,-107.5625C313.899,-108.9121 477.8924,-112.3466 558.4772,-114.0342"/>
<polygon fill="#000000" stroke="#000000" points="558.7394,-117.5404 568.8105,-114.2506 558.886,-110.5419 558.7394,-117.5404"/>
<text text-anchor="middle" x="413.5946" y="-114.8" font-family="Times,serif" font-size="14.00" fill="#000000">dime == 1&#39;h1</text>
</g>
<!-- Five&#45;&gt;Ten -->
<g id="edge4" class="edge">
<title>Five&#45;&gt;Ten</title>
<path fill="none" stroke="#000000" d="M247.1823,-96.3622C256.7238,-92.4706 267.8116,-88.2334 278.0946,-85 312.0354,-74.3275 351.7423,-65.3487 379.3636,-59.6442"/>
<polygon fill="#000000" stroke="#000000" points="380.2177,-63.0423 389.3208,-57.6215 378.8241,-56.1824 380.2177,-63.0423"/>
<text text-anchor="middle" x="318.0946" y="-88.8" font-family="Times,serif" font-size="14.00" fill="#000000">nickel == 1&#39;h1</text>
</g>
<!-- Ten&#45;&gt;Fifteen -->
<g id="edge8" class="edge">
<title>Ten&#45;&gt;Fifteen</title>
<path fill="none" stroke="#000000" d="M438.1566,-56.7913C465.754,-61.5079 511.5952,-70.7251 549.0946,-85 554.2768,-86.9727 559.5798,-89.3384 564.7531,-91.8645"/>
<polygon fill="#000000" stroke="#000000" points="563.3751,-95.091 573.8711,-96.5344 566.5661,-88.8606 563.3751,-95.091"/>
<text text-anchor="middle" x="509.0946" y="-88.8" font-family="Times,serif" font-size="14.00" fill="#000000">nickel == 1&#39;h1</text>
</g>
<!-- Ten&#45;&gt;Twenty -->
<g id="edge7" class="edge">
<title>Ten&#45;&gt;Twenty</title>
<path fill="none" stroke="#000000" d="M438.6207,-52.9184C480.6634,-52.8487 568.1342,-52.9928 642.0946,-55 677.4446,-55.9594 717.3374,-57.7986 747.6202,-59.351"/>
<polygon fill="#000000" stroke="#000000" points="747.7393,-62.8619 757.9077,-59.8863 748.1031,-55.8713 747.7393,-62.8619"/>
<text text-anchor="middle" x="604.5946" y="-58.8" font-family="Times,serif" font-size="14.00" fill="#000000">dime == 1&#39;h1</text>
</g>
<!-- Twenty&#45;&gt;Reset -->
<g id="edge9" class="edge">
<title>Twenty&#45;&gt;Reset</title>
<path fill="none" stroke="#000000" d="M762.3154,-44.067C724.9556,-25.7561 662.1721,0 604.5946,0 222.5946,0 222.5946,0 222.5946,0 171.0068,0 113.7702,-16.8541 76.1495,-30.3769"/>
<polygon fill="#000000" stroke="#000000" points="74.7284,-27.1703 66.5519,-33.9079 77.1454,-33.7398 74.7284,-27.1703"/>
</g>
</g>
</svg>
